<svg xmlns="http://www.w3.org/2000/svg"  viewBox="0 0 100 100" width="100px" height="100px"><path d="M 31 17.988281 C 23.82 17.988281 18 23.808281 18 30.988281 L 18 69.988281 C 18 77.168281 23.82 82.988281 31 82.988281 L 70 82.988281 C 77.179 82.988281 83 77.168281 83 69.988281 L 83 30.988281 C 83 23.808281 77.18 17.988281 70 17.988281 L 31 17.988281 z M 31 19.988281 L 70 19.988281 C 76.075 19.988281 81 24.913281 81 30.988281 L 81 69.988281 C 81 76.063281 76.075 80.988281 70 80.988281 L 31 80.988281 C 24.925 80.988281 20 76.063281 20 69.988281 L 20 30.988281 C 20 24.913281 24.924 19.988281 31 19.988281 z M 33.837891 22.988281 C 27.852891 22.988281 23 27.839219 23 33.824219 L 23 67.150391 C 23 73.135391 27.852891 77.988281 33.837891 77.988281 L 67.162109 77.988281 C 73.147109 77.988281 78 73.136391 78 67.150391 L 78 48.488281 C 78 48.212281 77.776 47.988281 77.5 47.988281 C 77.224 47.988281 77 48.212281 77 48.488281 L 77 67.150391 C 77 72.583391 72.595109 76.988281 67.162109 76.988281 L 33.837891 76.988281 C 28.404891 76.988281 24 72.583391 24 67.150391 L 24 33.824219 C 24 28.391219 28.404891 23.988281 33.837891 23.988281 L 67.5 23.988281 C 67.776 23.988281 68 23.764281 68 23.488281 C 68 23.212281 67.776 22.988281 67.5 22.988281 L 33.837891 22.988281 z M 62.623047 29.029297 C 62.439102 29.019192 62.250517 29.029442 62.060547 29.0625 A 0.50005 0.50005 0 0 0 62.050781 29.064453 L 43.060547 32.71875 C 41.866635 32.926875 40.988281 33.969929 40.988281 35.181641 L 40.988281 59.5 C 40.988281 59.885417 40.87303 60.125384 40.6875 60.332031 C 40.50197 60.538678 40.228163 60.700589 39.933594 60.814453 C 39.344456 61.042182 38.728516 61.0625 38.728516 61.0625 A 0.50005 0.50005 0 0 0 38.683594 61.066406 C 38.483923 61.088596 38.252339 61.10053 37.988281 61.15625 C 34.774521 61.831761 32.498701 64.509656 33.060547 67.246094 C 33.623525 69.982509 36.77058 71.524245 39.984375 70.847656 C 43.135452 70.18563 44.990234 67.720933 44.990234 65 L 44.990234 43.34375 C 44.990234 43.093574 45.157765 42.893012 45.400391 42.851562 C 48.226632 42.369749 57.190773 40.594369 60.404297 40.021484 C 60.721187 39.965134 60.990234 40.190297 60.990234 40.513672 L 60.990234 55.5 C 60.990234 56.33225 60.643036 56.616692 60.257812 56.810547 C 59.872591 57.004402 59.474609 57.013672 59.474609 57.013672 C 58.99934 57.015772 58.502208 57.048002 57.988281 57.15625 C 54.774521 57.831761 52.500655 60.507703 53.0625 63.244141 C 53.625478 65.980555 56.772533 67.522292 59.986328 66.845703 C 62.978666 66.217097 64.988281 63.702889 64.988281 60.5 L 64.988281 31.525391 C 64.988281 30.175859 63.910661 29.100034 62.623047 29.029297 z M 62.578125 30.025391 C 63.356836 30.065307 63.988281 30.702647 63.988281 31.525391 L 63.988281 60.5 C 63.988281 63.297111 62.346959 65.327793 59.779297 65.867188 C 56.989092 66.454599 54.468038 65.118554 54.041016 63.042969 C 53.614861 60.967406 55.405073 58.721255 58.195312 58.134766 C 58.621386 58.045016 59.045785 58.015578 59.478516 58.013672 A 0.50005 0.50005 0 0 0 59.480469 58.013672 C 59.480469 58.013672 60.087707 58.015772 60.708984 57.703125 C 61.330215 57.39048 61.990234 56.66775 61.990234 55.5 L 61.990234 40.513672 C 61.990234 39.591046 61.137626 38.875457 60.228516 39.037109 C 56.98004 39.616225 48.002181 41.393049 45.232422 41.865234 C 44.515047 41.987786 43.990234 42.619926 43.990234 43.34375 L 43.990234 65 C 43.990234 67.279067 42.530218 69.291177 39.779297 69.869141 C 36.989092 70.456552 34.468038 69.120507 34.041016 67.044922 C 33.614861 64.96936 35.40312 62.721255 38.193359 62.134766 C 38.365301 62.098486 38.562593 62.086357 38.794922 62.060547 L 38.75 62.0625 C 38.75 62.0625 39.509059 62.05182 40.294922 61.748047 C 40.687853 61.596161 41.101546 61.367666 41.431641 61 C 41.761735 60.632334 41.988281 60.114583 41.988281 59.5 L 41.988281 35.181641 C 41.988281 34.449353 42.510334 33.830954 43.232422 33.705078 A 0.50005 0.50005 0 0 0 43.240234 33.703125 L 62.236328 30.046875 C 62.352149 30.027032 62.466881 30.019688 62.578125 30.025391 z M 77.5 36.566406 C 77.224 36.566406 77 36.790406 77 37.066406 L 77 39.066406 C 77 39.342406 77.224 39.566406 77.5 39.566406 C 77.776 39.566406 78 39.343406 78 39.066406 L 78 37.066406 C 78 36.790406 77.776 36.566406 77.5 36.566406 z M 77.5 40.566406 C 77.224 40.566406 77 40.790406 77 41.066406 L 77 45.066406 C 77 45.342406 77.224 45.566406 77.5 45.566406 C 77.776 45.566406 78 45.343406 78 45.066406 L 78 41.066406 C 78 40.790406 77.776 40.566406 77.5 40.566406 z"/></svg>